<mxfile host="Electron" modified="2023-12-12T14:08:52.186Z" agent="Mozilla/5.0 (Windows NT 10.0; Win64; x64) AppleWebKit/537.36 (KHTML, like Gecko) draw.io/22.1.2 Chrome/114.0.5735.289 Electron/25.9.4 Safari/537.36" etag="k35yAALobPxvbpszd5_D" version="22.1.2" type="device">
  <diagram id="C5RBs43oDa-KdzZeNtuy" name="Page-1">
    <mxGraphModel dx="1036" dy="606" grid="1" gridSize="10" guides="1" tooltips="1" connect="1" arrows="1" fold="1" page="1" pageScale="1" pageWidth="827" pageHeight="1169" math="0" shadow="0">
      <root>
        <mxCell id="WIyWlLk6GJQsqaUBKTNV-0" />
        <mxCell id="WIyWlLk6GJQsqaUBKTNV-1" parent="WIyWlLk6GJQsqaUBKTNV-0" />
        <mxCell id="Ii6EBYF0BPZbq6cMydTG-0" value="Operator" style="shape=umlLifeline;perimeter=lifelinePerimeter;whiteSpace=wrap;html=1;container=0;dropTarget=0;collapsible=0;recursiveResize=0;outlineConnect=0;portConstraint=eastwest;newEdgeStyle={&quot;edgeStyle&quot;:&quot;elbowEdgeStyle&quot;,&quot;elbow&quot;:&quot;vertical&quot;,&quot;curved&quot;:0,&quot;rounded&quot;:0};" parent="WIyWlLk6GJQsqaUBKTNV-1" vertex="1">
          <mxGeometry x="100" y="60" width="100" height="500" as="geometry" />
        </mxCell>
        <mxCell id="CvadQskYh5KorMpUuj-5-0" value="" style="html=1;points=[[0,0,0,0,5],[0,1,0,0,-5],[1,0,0,0,5],[1,1,0,0,-5]];perimeter=orthogonalPerimeter;outlineConnect=0;targetShapes=umlLifeline;portConstraint=eastwest;newEdgeStyle={&quot;curved&quot;:0,&quot;rounded&quot;:0};" vertex="1" parent="Ii6EBYF0BPZbq6cMydTG-0">
          <mxGeometry x="45" y="150" width="10" height="30" as="geometry" />
        </mxCell>
        <mxCell id="Ii6EBYF0BPZbq6cMydTG-2" value="&lt;div&gt;AED&lt;/div&gt;" style="shape=umlLifeline;perimeter=lifelinePerimeter;whiteSpace=wrap;html=1;container=0;dropTarget=0;collapsible=0;recursiveResize=0;outlineConnect=0;portConstraint=eastwest;newEdgeStyle={&quot;edgeStyle&quot;:&quot;elbowEdgeStyle&quot;,&quot;elbow&quot;:&quot;vertical&quot;,&quot;curved&quot;:0,&quot;rounded&quot;:0};" parent="WIyWlLk6GJQsqaUBKTNV-1" vertex="1">
          <mxGeometry x="400" y="60" width="100" height="500" as="geometry" />
        </mxCell>
        <mxCell id="Ii6EBYF0BPZbq6cMydTG-4" value="VoiceSystem" style="shape=umlLifeline;perimeter=lifelinePerimeter;whiteSpace=wrap;html=1;container=0;dropTarget=0;collapsible=0;recursiveResize=0;outlineConnect=0;portConstraint=eastwest;newEdgeStyle={&quot;edgeStyle&quot;:&quot;elbowEdgeStyle&quot;,&quot;elbow&quot;:&quot;vertical&quot;,&quot;curved&quot;:0,&quot;rounded&quot;:0};" parent="WIyWlLk6GJQsqaUBKTNV-1" vertex="1">
          <mxGeometry x="650" y="120" width="100" height="440" as="geometry" />
        </mxCell>
        <mxCell id="Ii6EBYF0BPZbq6cMydTG-7" value="MainWindow" style="shape=umlLifeline;perimeter=lifelinePerimeter;whiteSpace=wrap;html=1;container=0;dropTarget=0;collapsible=0;recursiveResize=0;outlineConnect=0;portConstraint=eastwest;newEdgeStyle={&quot;edgeStyle&quot;:&quot;elbowEdgeStyle&quot;,&quot;elbow&quot;:&quot;vertical&quot;,&quot;curved&quot;:0,&quot;rounded&quot;:0};" parent="WIyWlLk6GJQsqaUBKTNV-1" vertex="1">
          <mxGeometry x="470" y="120" width="100" height="440" as="geometry" />
        </mxCell>
        <mxCell id="CvadQskYh5KorMpUuj-5-2" value="" style="html=1;points=[[0,0,0,0,5],[0,1,0,0,-5],[1,0,0,0,5],[1,1,0,0,-5]];perimeter=orthogonalPerimeter;outlineConnect=0;targetShapes=umlLifeline;portConstraint=eastwest;newEdgeStyle={&quot;curved&quot;:0,&quot;rounded&quot;:0};" vertex="1" parent="Ii6EBYF0BPZbq6cMydTG-7">
          <mxGeometry x="45" y="130" width="10" height="180" as="geometry" />
        </mxCell>
        <mxCell id="Ii6EBYF0BPZbq6cMydTG-8" value="Failed AED Setup" style="text;strokeColor=none;fillColor=none;html=1;fontSize=24;fontStyle=1;verticalAlign=middle;align=center;" parent="WIyWlLk6GJQsqaUBKTNV-1" vertex="1">
          <mxGeometry x="210" width="440" height="40" as="geometry" />
        </mxCell>
        <mxCell id="Ii6EBYF0BPZbq6cMydTG-9" value="&lt;div&gt;MainWindow&lt;/div&gt;&lt;div&gt;.powerButton&lt;/div&gt;" style="shape=umlLifeline;perimeter=lifelinePerimeter;whiteSpace=wrap;html=1;container=0;dropTarget=0;collapsible=0;recursiveResize=0;outlineConnect=0;portConstraint=eastwest;newEdgeStyle={&quot;edgeStyle&quot;:&quot;elbowEdgeStyle&quot;,&quot;elbow&quot;:&quot;vertical&quot;,&quot;curved&quot;:0,&quot;rounded&quot;:0};" parent="WIyWlLk6GJQsqaUBKTNV-1" vertex="1">
          <mxGeometry x="170" y="120" width="100" height="440" as="geometry" />
        </mxCell>
        <mxCell id="Ii6EBYF0BPZbq6cMydTG-10" value="" style="endArrow=classic;html=1;rounded=0;" parent="WIyWlLk6GJQsqaUBKTNV-1" edge="1">
          <mxGeometry width="50" height="50" relative="1" as="geometry">
            <mxPoint x="149.75925925925935" y="220.0000000000001" as="sourcePoint" />
            <mxPoint x="219.75925925925935" y="220.0000000000001" as="targetPoint" />
            <Array as="points">
              <mxPoint x="220" y="220" />
            </Array>
          </mxGeometry>
        </mxCell>
        <mxCell id="Ii6EBYF0BPZbq6cMydTG-11" value="Press" style="edgeLabel;html=1;align=center;verticalAlign=middle;resizable=0;points=[];" parent="Ii6EBYF0BPZbq6cMydTG-10" connectable="0" vertex="1">
          <mxGeometry x="-0.2086" relative="1" as="geometry">
            <mxPoint x="3" y="-10" as="offset" />
          </mxGeometry>
        </mxCell>
        <mxCell id="Ii6EBYF0BPZbq6cMydTG-12" value="&lt;div&gt;Mainwindow&lt;/div&gt;&lt;div&gt;.activeIndicator&lt;br&gt;&lt;/div&gt;" style="shape=umlLifeline;perimeter=lifelinePerimeter;whiteSpace=wrap;html=1;container=0;dropTarget=0;collapsible=0;recursiveResize=0;outlineConnect=0;portConstraint=eastwest;newEdgeStyle={&quot;edgeStyle&quot;:&quot;elbowEdgeStyle&quot;,&quot;elbow&quot;:&quot;vertical&quot;,&quot;curved&quot;:0,&quot;rounded&quot;:0};" parent="WIyWlLk6GJQsqaUBKTNV-1" vertex="1">
          <mxGeometry x="250" y="60" width="100" height="500" as="geometry" />
        </mxCell>
        <mxCell id="CvadQskYh5KorMpUuj-5-1" value="" style="html=1;points=[[0,0,0,0,5],[0,1,0,0,-5],[1,0,0,0,5],[1,1,0,0,-5]];perimeter=orthogonalPerimeter;outlineConnect=0;targetShapes=umlLifeline;portConstraint=eastwest;newEdgeStyle={&quot;curved&quot;:0,&quot;rounded&quot;:0};" vertex="1" parent="Ii6EBYF0BPZbq6cMydTG-12">
          <mxGeometry x="45" y="200" width="10" height="170" as="geometry" />
        </mxCell>
        <mxCell id="Ii6EBYF0BPZbq6cMydTG-13" value="&lt;div&gt;MainWindow&lt;/div&gt;&lt;div&gt;.batteryIndicator&lt;br&gt;&lt;/div&gt;" style="shape=umlLifeline;perimeter=lifelinePerimeter;whiteSpace=wrap;html=1;container=0;dropTarget=0;collapsible=0;recursiveResize=0;outlineConnect=0;portConstraint=eastwest;newEdgeStyle={&quot;edgeStyle&quot;:&quot;elbowEdgeStyle&quot;,&quot;elbow&quot;:&quot;vertical&quot;,&quot;curved&quot;:0,&quot;rounded&quot;:0};" parent="WIyWlLk6GJQsqaUBKTNV-1" vertex="1">
          <mxGeometry x="320" y="120" width="100" height="440" as="geometry" />
        </mxCell>
        <mxCell id="Ii6EBYF0BPZbq6cMydTG-14" value="" style="endArrow=classic;html=1;rounded=0;exitX=0.5;exitY=0.121;exitDx=0;exitDy=0;exitPerimeter=0;" parent="WIyWlLk6GJQsqaUBKTNV-1" edge="1">
          <mxGeometry width="50" height="50" relative="1" as="geometry">
            <mxPoint x="450" y="279.4" as="sourcePoint" />
            <mxPoint x="300" y="280" as="targetPoint" />
          </mxGeometry>
        </mxCell>
        <mxCell id="Ii6EBYF0BPZbq6cMydTG-15" value="Light" style="edgeLabel;html=1;align=center;verticalAlign=middle;resizable=0;points=[];" parent="Ii6EBYF0BPZbq6cMydTG-14" connectable="0" vertex="1">
          <mxGeometry x="-0.3931" y="1" relative="1" as="geometry">
            <mxPoint x="16" y="-11" as="offset" />
          </mxGeometry>
        </mxCell>
        <mxCell id="Ii6EBYF0BPZbq6cMydTG-16" value="" style="endArrow=classic;html=1;rounded=0;exitX=0.5;exitY=0.121;exitDx=0;exitDy=0;exitPerimeter=0;" parent="WIyWlLk6GJQsqaUBKTNV-1" edge="1">
          <mxGeometry width="50" height="50" relative="1" as="geometry">
            <mxPoint x="450" y="260" as="sourcePoint" />
            <mxPoint x="370" y="260" as="targetPoint" />
          </mxGeometry>
        </mxCell>
        <mxCell id="Ii6EBYF0BPZbq6cMydTG-17" value="Light" style="edgeLabel;html=1;align=center;verticalAlign=middle;resizable=0;points=[];" parent="Ii6EBYF0BPZbq6cMydTG-16" connectable="0" vertex="1">
          <mxGeometry x="-0.3931" y="1" relative="1" as="geometry">
            <mxPoint x="-6" y="-11" as="offset" />
          </mxGeometry>
        </mxCell>
        <mxCell id="Ii6EBYF0BPZbq6cMydTG-18" value="" style="endArrow=classic;html=1;rounded=0;" parent="WIyWlLk6GJQsqaUBKTNV-1" source="Ii6EBYF0BPZbq6cMydTG-2" edge="1">
          <mxGeometry width="50" height="50" relative="1" as="geometry">
            <mxPoint x="449.6666666666665" y="320" as="sourcePoint" />
            <mxPoint x="449.6666666666665" y="370" as="targetPoint" />
            <Array as="points">
              <mxPoint x="470" y="310" />
              <mxPoint x="470" y="370" />
            </Array>
          </mxGeometry>
        </mxCell>
        <mxCell id="Ii6EBYF0BPZbq6cMydTG-19" value="&lt;div&gt;Self Check&lt;/div&gt;" style="edgeLabel;html=1;align=center;verticalAlign=middle;resizable=0;points=[];rotation=90;" parent="Ii6EBYF0BPZbq6cMydTG-18" connectable="0" vertex="1">
          <mxGeometry x="-0.2279" y="4" relative="1" as="geometry">
            <mxPoint x="6" y="5" as="offset" />
          </mxGeometry>
        </mxCell>
        <mxCell id="Ii6EBYF0BPZbq6cMydTG-22" value="" style="endArrow=classic;html=1;rounded=0;" parent="WIyWlLk6GJQsqaUBKTNV-1" edge="1">
          <mxGeometry width="50" height="50" relative="1" as="geometry">
            <mxPoint x="700.09" y="440" as="sourcePoint" />
            <mxPoint x="519.9135294117649" y="440" as="targetPoint" />
          </mxGeometry>
        </mxCell>
        <mxCell id="Ii6EBYF0BPZbq6cMydTG-24" value="&lt;div&gt;MainWindow&lt;/div&gt;&lt;div&gt;.placeElectrodesBtn&lt;br&gt;&lt;/div&gt;" style="shape=umlLifeline;perimeter=lifelinePerimeter;whiteSpace=wrap;html=1;container=0;dropTarget=0;collapsible=0;recursiveResize=0;outlineConnect=0;portConstraint=eastwest;newEdgeStyle={&quot;edgeStyle&quot;:&quot;elbowEdgeStyle&quot;,&quot;elbow&quot;:&quot;vertical&quot;,&quot;curved&quot;:0,&quot;rounded&quot;:0};" parent="WIyWlLk6GJQsqaUBKTNV-1" vertex="1">
          <mxGeometry x="550" y="60" width="120" height="500" as="geometry" />
        </mxCell>
        <mxCell id="Ii6EBYF0BPZbq6cMydTG-25" value="&lt;div&gt;UNIT NOT OKAY&amp;nbsp;&lt;/div&gt;&lt;div&gt;(initiateAudioAndTextInstruction())&lt;/div&gt;" style="edgeLabel;html=1;align=center;verticalAlign=middle;resizable=0;points=[];" parent="WIyWlLk6GJQsqaUBKTNV-1" connectable="0" vertex="1">
          <mxGeometry x="610.0033333333334" y="410" as="geometry" />
        </mxCell>
        <mxCell id="Ii6EBYF0BPZbq6cMydTG-68" value="" style="endArrow=classic;html=1;rounded=0;" parent="WIyWlLk6GJQsqaUBKTNV-1" edge="1">
          <mxGeometry width="50" height="50" relative="1" as="geometry">
            <mxPoint x="219.59181818181847" y="240" as="sourcePoint" />
            <mxPoint x="520.41" y="240" as="targetPoint" />
          </mxGeometry>
        </mxCell>
        <mxCell id="Ii6EBYF0BPZbq6cMydTG-69" value="powerBtn()" style="edgeLabel;html=1;align=center;verticalAlign=middle;resizable=0;points=[];" parent="Ii6EBYF0BPZbq6cMydTG-68" connectable="0" vertex="1">
          <mxGeometry x="-0.7919" y="-1" relative="1" as="geometry">
            <mxPoint x="-1" y="-11" as="offset" />
          </mxGeometry>
        </mxCell>
      </root>
    </mxGraphModel>
  </diagram>
</mxfile>
